<svg width="28" height="28" viewBox="0 0 28 28" fill="none" xmlns="http://www.w3.org/2000/svg">
<circle cx="5.24967" cy="11.6667" r="1.16667" fill="#50463E"/>
<circle cx="11.6667" cy="11.6667" r="1.16667" fill="#50463E"/>
<ellipse cx="5.24967" cy="4.66667" rx="1.16667" ry="1.16667" fill="#50463E"/>
<circle cx="5.24967" cy="16.3346" r="1.16667" fill="#50463E"/>
<circle cx="11.6667" cy="16.3346" r="1.16667" fill="#50463E"/>
<ellipse cx="20.5329" cy="16.3346" rx="1.16667" ry="1.16667" fill="#50463E"/>
<ellipse cx="5.24967" cy="20.9987" rx="1.16667" ry="1.16667" fill="#50463E"/>
<ellipse cx="11.6667" cy="20.9987" rx="1.16667" ry="1.16667" fill="#50463E"/>
<ellipse cx="20.5329" cy="20.9987" rx="1.16667" ry="1.16667" fill="#50463E"/>
<ellipse cx="5.24967" cy="13.9987" rx="1.16667" ry="1.16667" fill="#50463E"/>
<ellipse cx="11.6667" cy="13.9987" rx="1.16667" ry="1.16667" fill="#50463E"/>
<circle cx="20.5329" cy="13.9987" r="1.16667" fill="#50463E"/>
<ellipse cx="5.24967" cy="6.9987" rx="1.16667" ry="1.16667" fill="#50463E"/>
<ellipse cx="5.24967" cy="18.6667" rx="1.16667" ry="1.16667" fill="#50463E"/>
<ellipse cx="11.6667" cy="18.6667" rx="1.16667" ry="1.16667" fill="#50463E"/>
<circle cx="20.5329" cy="18.6667" r="1.16667" fill="#50463E"/>
<ellipse cx="5.24967" cy="23.3346" rx="1.16667" ry="1.16667" fill="#50463E"/>
<ellipse cx="11.6667" cy="23.3346" rx="1.16667" ry="1.16667" fill="#50463E"/>
<circle cx="20.5329" cy="23.3346" r="1.16667" fill="#50463E"/>
<ellipse cx="7.58366" cy="11.6667" rx="1.16667" ry="1.16667" fill="#50463E"/>
<ellipse cx="13.9997" cy="11.6667" rx="1.16667" ry="1.16667" fill="#50463E"/>
<circle cx="7.58366" cy="4.66667" r="1.16667" fill="#50463E"/>
<ellipse cx="7.58366" cy="16.3346" rx="1.16667" ry="1.16667" fill="#50463E"/>
<ellipse cx="13.9997" cy="16.3346" rx="1.16667" ry="1.16667" fill="#50463E"/>
<ellipse cx="16.1003" cy="15.1667" rx="1.16667" ry="1.16667" fill="#50463E"/>
<circle cx="18.4333" cy="15.1667" r="1.16667" fill="#50463E"/>
<ellipse cx="17.2663" cy="13.0651" rx="1.16667" ry="1.16667" fill="#50463E"/>
<ellipse cx="21.6999" cy="11.901" rx="1.16667" ry="1.16667" fill="#50463E"/>
<ellipse cx="19.3669" cy="11.901" rx="1.16667" ry="1.16667" fill="#50463E"/>
<ellipse cx="22.8669" cy="16.3346" rx="1.16667" ry="1.16667" fill="#50463E"/>
<ellipse cx="7.58366" cy="20.9987" rx="1.16667" ry="1.16667" fill="#50463E"/>
<ellipse cx="13.9997" cy="20.9987" rx="1.16667" ry="1.16667" fill="#50463E"/>
<circle cx="22.8669" cy="20.9987" r="1.16667" fill="#50463E"/>
<ellipse cx="7.58366" cy="13.9987" rx="1.16667" ry="1.16667" fill="#50463E"/>
<circle cx="13.9997" cy="13.9987" r="1.16667" fill="#50463E"/>
<ellipse cx="22.8669" cy="13.9987" rx="1.16667" ry="1.16667" fill="#50463E"/>
<circle cx="7.58366" cy="6.9987" r="1.16667" fill="#50463E"/>
<ellipse cx="7.58366" cy="18.6667" rx="1.16667" ry="1.16667" fill="#50463E"/>
<circle cx="13.9997" cy="18.6667" r="1.16667" fill="#50463E"/>
<ellipse cx="22.8669" cy="18.6667" rx="1.16667" ry="1.16667" fill="#50463E"/>
<ellipse cx="7.58366" cy="23.3346" rx="1.16667" ry="1.16667" fill="#50463E"/>
<circle cx="13.9997" cy="23.3346" r="1.16667" fill="#50463E"/>
<ellipse cx="22.8669" cy="23.3346" rx="1.16667" ry="1.16667" fill="#50463E"/>
</svg>
