<svg width="28" height="28" viewBox="0 0 28 28" fill="none" xmlns="http://www.w3.org/2000/svg">
<circle cx="5.83366" cy="4.66667" r="1.16667" fill="white"/>
<circle cx="15.1667" cy="23.3346" r="1.16667" fill="white"/>
<circle cx="10.4997" cy="13.9987" r="1.16667" fill="white"/>
<ellipse cx="17.4997" cy="13.9987" rx="1.16667" ry="1.16667" fill="white"/>
<ellipse cx="12.8337" cy="18.6667" rx="1.16667" ry="1.16667" fill="white"/>
<circle cx="19.8337" cy="18.6667" r="1.16667" fill="white"/>
<circle cx="8.16667" cy="9.33463" r="1.16667" fill="white"/>
<ellipse cx="15.1667" cy="9.33463" rx="1.16667" ry="1.16667" fill="white"/>
<circle cx="6.99967" cy="6.9987" r="1.16667" fill="white"/>
<ellipse cx="13.9997" cy="6.9987" rx="1.16667" ry="1.16667" fill="white"/>
<circle cx="9.33366" cy="11.6667" r="1.16667" fill="white"/>
<circle cx="16.3337" cy="11.6667" r="1.16667" fill="white"/>
<circle cx="11.6667" cy="16.3346" r="1.16667" fill="white"/>
<ellipse cx="18.6667" cy="16.3346" rx="1.16667" ry="1.16667" fill="white"/>
<ellipse cx="13.9997" cy="20.9987" rx="1.16667" ry="1.16667" fill="white"/>
<circle cx="20.9997" cy="20.9987" r="1.16667" fill="white"/>
<ellipse cx="8.16667" cy="4.66667" rx="1.16667" ry="1.16667" fill="white"/>
<ellipse cx="17.4997" cy="23.3346" rx="1.16667" ry="1.16667" fill="white"/>
<ellipse cx="10.4997" cy="4.66667" rx="1.16667" ry="1.16667" fill="white"/>
<circle cx="19.8337" cy="23.3346" r="1.16667" fill="white"/>
<ellipse cx="12.8337" cy="4.66667" rx="1.16667" ry="1.16667" fill="white"/>
<ellipse cx="23.9167" cy="4.66667" rx="1.16667" ry="1.16667" fill="white"/>
<ellipse cx="9.80046" cy="18.0846" rx="1.16667" ry="1.16667" fill="white"/>
<ellipse cx="6.06706" cy="21.5846" rx="1.16667" ry="1.16667" fill="white"/>
<ellipse cx="7.93327" cy="19.8346" rx="1.16667" ry="1.16667" fill="white"/>
<ellipse cx="18.1999" cy="9.91667" rx="1.16667" ry="1.16667" fill="white"/>
<ellipse cx="20.0671" cy="8.16667" rx="1.16667" ry="1.16667" fill="white"/>
<ellipse cx="21.9333" cy="6.41667" rx="1.16667" ry="1.16667" fill="white"/>
<ellipse cx="4.08366" cy="23.3346" rx="1.16667" ry="1.16667" fill="white"/>
<circle cx="22.1667" cy="23.3346" r="1.16667" fill="white"/>
</svg>
